<?xml version="1.0" standalone="no"?>
<!DOCTYPE svg PUBLIC "-//W3C//DTD SVG 20010904//EN"
 "http://www.w3.org/TR/2001/REC-SVG-20010904/DTD/svg10.dtd">
<svg version="1.0" xmlns="http://www.w3.org/2000/svg"
 width="7200.000000pt" height="3600.000000pt" viewBox="0 0 7200.000000 3600.000000"
 preserveAspectRatio="xMidYMid meet">

<g transform="translate(0.000000,3600.000000) scale(0.100000,-0.100000)"
fill="#000000" stroke="none">
<path d="M52195 26748 c-550 -186 -1155 -390 -1344 -454 l-343 -117 68 -43
c38 -24 83 -51 99 -60 31 -16 36 -14 1297 411 696 235 1270 430 1277 434 8 5
3 30 -17 84 -15 42 -30 78 -32 80 -3 2 -455 -149 -1005 -335z"/>
<path d="M44940 25151 c-2566 -857 -4665 -1562 -4665 -1567 0 -5 11 -44 24
-86 l24 -76 4651 1553 4651 1552 3 92 c2 69 0 91 -10 90 -7 0 -2112 -701
-4678 -1558z"/>
<path d="M48470 25491 c-630 -214 -3015 -1019 -5300 -1791 -2285 -771 -4157
-1404 -4159 -1406 -1 -1 9 -39 24 -84 22 -66 31 -81 45 -77 9 2 1158 390 2553
861 1394 471 2538 856 2541 856 3 0 6 -7 6 -16 0 -31 33 -85 61 -99 15 -8 53
-15 84 -15 l55 0 0 -753 0 -753 -33 -12 c-45 -16 -96 -68 -121 -122 -17 -38
-21 -70 -24 -207 l-4 -163 221 0 221 0 0 163 c0 141 -3 168 -21 207 -26 57
-73 107 -116 121 l-33 11 0 754 0 754 63 0 c97 0 137 41 137 140 0 54 -10 81
-42 116 l-19 22 88 30 c99 33 4673 1579 4881 1649 72 25 132 48 132 51 0 4
-15 14 -33 23 -27 14 -32 22 -33 55 -3 69 -4 74 -16 73 -7 0 -528 -175 -1158
-388z"/>
<path d="M53031 23724 c0 -11 3 -14 6 -6 3 7 2 16 -1 19 -3 4 -6 -2 -5 -13z"/>
<path d="M54106 23062 c-3 -5 1 -9 9 -9 8 0 12 4 9 9 -3 4 -7 8 -9 8 -2 0 -6
-4 -9 -8z"/>
<path d="M55785 22071 c-3 -5 -2 -12 3 -15 5 -3 9 1 9 9 0 17 -3 19 -12 6z"/>
<path d="M44081 21433 c-5 -21 -13 -51 -17 -67 -4 -15 -25 -45 -48 -65 -128
-114 -173 -179 -200 -287 -14 -56 -96 -550 -96 -579 0 -7 7 -21 16 -29 14 -14
90 -16 690 -16 l674 0 11 24 c9 18 2 83 -31 292 -23 148 -46 287 -52 309 -23
92 -60 149 -154 240 -89 87 -93 93 -104 153 l-13 62 -333 0 -333 0 -10 -37z"/>
<path d="M25820 20875 c-234 -46 -613 -121 -842 -166 l-418 -81 0 -223 0 -222
268 -54 267 -54 3 -2532 2 -2533 -270 0 -270 0 0 -260 0 -260 1130 0 1130 0 0
260 0 260 -270 0 -270 0 0 2975 c0 2827 -1 2975 -17 2974 -10 0 -209 -38 -443
-84z"/>
<path d="M41700 20875 c-234 -46 -613 -121 -842 -166 l-418 -81 0 -223 0 -222
268 -54 267 -54 3 -917 2 -918 -23 0 c-18 0 -28 11 -46 48 -45 92 -153 243
-235 325 -195 198 -378 294 -651 343 -137 24 -458 25 -600 1 -858 -147 -1389
-827 -1495 -1917 -6 -63 -11 -223 -11 -355 0 -550 82 -948 276 -1340 97 -195
182 -319 310 -453 318 -334 726 -502 1222 -502 301 0 559 68 753 200 152 103
338 315 418 478 29 58 41 72 57 70 20 -3 20 -11 23 -377 2 -351 3 -373 20
-369 10 3 396 79 860 169 l842 164 0 223 c0 122 -2 222 -4 222 -8 0 -502 101
-518 106 -17 5 -18 149 -18 2845 0 2697 -1 2839 -17 2838 -10 0 -209 -38 -443
-84z m-1345 -2640 c302 -76 521 -279 597 -552 22 -77 22 -90 26 -928 3 -913 0
-990 -45 -1127 -96 -291 -401 -501 -763 -524 -400 -26 -746 177 -898 528 -93
216 -105 358 -99 1148 4 654 8 694 68 875 112 336 388 561 740 604 106 13 269
3 374 -24z"/>
<path d="M52055 20449 c-418 -45 -799 -410 -865 -829 -5 -36 -10 -170 -10
-297 0 -128 -3 -233 -7 -233 -123 -6 -282 -23 -328 -35 -87 -22 -231 -95 -300
-152 -193 -158 -309 -427 -291 -676 16 -230 146 -453 346 -592 129 -91 115 -9
116 -684 0 -641 -1 -628 61 -759 67 -143 222 -264 380 -297 38 -8 107 -15 154
-15 l87 0 4 -192 c2 -133 8 -200 17 -216 25 -46 62 -52 321 -52 351 0 340 -8
340 270 l0 180 809 0 810 0 3 -195 3 -195 28 -27 27 -28 263 -3 c159 -2 274 1
290 7 55 21 62 47 65 258 l4 193 91 0 c51 0 121 7 156 15 193 46 348 190 413
385 22 63 22 82 28 666 4 506 7 604 20 618 8 10 39 34 69 53 175 112 314 312
356 513 66 315 -93 673 -374 840 -124 74 -234 103 -443 116 l-96 6 -4 276 c-5
300 -8 321 -69 468 -44 105 -115 210 -209 308 -135 141 -302 241 -481 288 -83
22 -93 22 -894 24 -445 1 -846 -2 -890 -7z m1460 -218 c244 -7 252 -8 337 -38
119 -41 220 -107 310 -201 122 -128 184 -262 207 -447 6 -49 11 -188 11 -308
0 -250 13 -217 -120 -317 -141 -106 -252 -273 -302 -450 -19 -67 -21 -109 -25
-402 -3 -181 -7 -328 -9 -328 -3 0 -88 16 -189 35 -217 41 -541 89 -719 106
-98 10 -151 10 -243 0 -186 -19 -516 -68 -717 -106 -102 -19 -189 -35 -195
-35 -5 0 -11 128 -13 323 -4 291 -7 330 -26 402 -49 179 -156 341 -293 445
-40 30 -86 67 -102 83 l-29 28 4 272 c4 212 9 289 22 347 23 96 92 240 150
310 125 151 317 257 506 280 83 10 1108 11 1435 1z m-2324 -1387 c172 -51 308
-171 385 -338 45 -99 53 -180 54 -556 2 -394 5 -415 63 -443 43 -22 30 -23
481 58 318 57 644 105 711 105 74 0 407 -50 800 -120 381 -68 400 -69 439 -17
20 27 21 43 27 425 5 329 9 407 23 457 47 168 155 304 306 384 201 107 460 71
632 -87 108 -100 164 -210 189 -369 33 -218 -97 -456 -311 -567 -156 -81 -144
-21 -141 -701 1 -363 -2 -599 -9 -650 -21 -157 -98 -259 -229 -302 -53 -17
-131 -18 -1731 -18 l-1675 0 -56 23 c-116 47 -189 147 -209 287 -5 40 -10 324
-10 656 l0 586 -23 34 c-15 23 -51 49 -107 79 -214 113 -345 334 -325 544 7
78 36 179 70 246 66 130 210 243 364 286 67 18 217 17 282 -2z m659 -3084 l0
-110 -110 0 -110 0 0 110 0 110 110 0 110 0 0 -110z m2300 0 l0 -110 -110 0
-110 0 0 110 0 110 110 0 110 0 0 -110z"/>
<path d="M14710 20100 l0 -260 303 -2 302 -3 3 -2412 2 -2413 -305 0 -305 0 0
-260 0 -260 1330 0 1330 0 0 260 0 260 -400 0 -400 0 0 1055 0 1055 620 0 620
0 2 -267 3 -268 308 -3 307 -2 0 830 0 830 -310 0 -310 0 0 -270 0 -270 -620
0 -620 0 0 1040 0 1040 960 0 960 0 0 -480 0 -480 465 0 465 0 0 770 0 770
-2355 0 -2355 0 0 -260z"/>
<path d="M43830 17095 l0 -2085 -270 0 -270 0 0 -260 0 -260 1130 0 1130 0 0
260 0 260 -270 0 -270 0 0 2085 0 2085 -590 0 -590 0 0 -2085z"/>
<path d="M21480 18970 c-523 -43 -963 -201 -1256 -449 -254 -215 -358 -543
-263 -828 55 -167 204 -303 380 -349 143 -38 362 -13 495 54 110 56 198 156
243 276 47 126 47 305 1 430 -24 63 -116 171 -182 213 -27 16 -38 30 -38 47 0
21 9 27 63 45 228 75 595 89 824 30 318 -80 497 -298 568 -689 14 -75 19 -172
22 -457 l5 -363 -333 0 c-514 0 -819 -20 -1079 -71 -683 -132 -1069 -462
-1155 -989 -17 -111 -20 -362 -4 -477 34 -249 119 -455 257 -619 225 -268 616
-398 1152 -381 195 6 319 24 459 69 331 105 529 274 706 601 26 48 53 87 60
87 9 0 15 -26 20 -87 16 -196 81 -349 200 -469 83 -85 172 -134 314 -172 90
-24 111 -26 321 -26 192 0 244 3 355 23 153 27 260 59 368 108 l77 36 0 224 0
223 -270 0 -269 0 -4 1373 c-2 1260 -4 1379 -20 1460 -58 289 -159 495 -332
676 -230 242 -538 378 -985 436 -147 19 -547 28 -700 15z m858 -2937 c-4 -401
-6 -433 -26 -506 -47 -172 -133 -275 -294 -353 -128 -61 -242 -85 -423 -85
-228 -2 -387 48 -505 158 -113 105 -150 216 -150 461 0 264 44 399 174 527
132 132 292 190 596 219 19 1 169 4 333 4 l299 2 -4 -427z"/>
<path d="M29365 18974 c-380 -38 -598 -96 -862 -229 -176 -89 -300 -176 -435
-304 -386 -367 -609 -878 -658 -1510 -55 -712 121 -1368 487 -1821 80 -98 239
-252 333 -321 270 -199 576 -320 949 -376 163 -24 569 -24 732 0 470 70 837
245 1135 542 192 190 310 360 420 605 129 288 193 565 216 937 23 374 -22 763
-124 1073 -110 336 -271 604 -503 835 -158 158 -273 241 -468 340 -219 110
-459 182 -717 215 -89 11 -436 21 -505 14z m355 -579 c187 -28 308 -85 430
-201 129 -124 215 -298 257 -524 16 -87 18 -173 18 -985 0 -802 -2 -899 -17
-981 -75 -397 -265 -625 -593 -716 -69 -19 -105 -22 -270 -22 -165 0 -201 3
-270 22 -319 88 -505 304 -588 682 -20 91 -21 131 -24 935 -3 552 -1 878 6
950 48 494 299 790 715 844 100 14 235 12 336 -4z"/>
<path d="M33095 18811 l-850 -167 -3 -221 c-2 -205 -1 -222 15 -227 17 -5 511
-106 519 -106 2 0 4 -516 4 -1147 0 -1246 1 -1285 56 -1532 122 -549 399 -846
899 -964 178 -42 274 -52 525 -52 206 0 249 3 348 23 343 69 614 238 796 494
50 70 146 252 146 275 0 7 11 13 25 13 l25 0 0 -406 c0 -382 1 -406 18 -402 9
3 392 78 849 169 l833 164 0 223 c0 122 -2 222 -4 222 -8 0 -501 101 -518 106
-17 5 -18 102 -18 1854 l0 1850 -32 -7 c-18 -4 -404 -79 -858 -168 l-825 -161
-3 -221 c-2 -205 -1 -222 15 -227 20 -5 511 -106 519 -106 2 0 3 -530 2 -1177
-3 -1086 -5 -1183 -21 -1238 -59 -204 -226 -376 -440 -453 -169 -61 -351 -83
-526 -63 -330 39 -509 190 -586 495 -44 174 -45 221 -45 1811 0 833 -3 1515
-7 1514 -5 -1 -390 -76 -858 -168z"/>
<path d="M49272 18799 c-206 -24 -384 -125 -496 -282 -96 -135 -175 -331 -199
-497 l-13 -95 -17 32 c-26 50 -109 148 -163 193 -63 53 -182 114 -276 141
-137 39 -459 35 -525 -7 -29 -18 -30 -55 -3 -160 50 -199 127 -344 245 -461
68 -67 99 -89 176 -126 137 -66 220 -82 417 -81 l162 0 0 -248 0 -248 60 0 60
0 0 493 0 492 172 0 c227 1 333 28 473 120 175 116 287 296 351 562 30 123 25
148 -28 158 -40 6 -284 26 -307 24 -9 -1 -49 -5 -89 -10z m312 -119 c14 -14
-22 -162 -58 -235 -69 -138 -182 -248 -331 -320 -110 -53 -175 -69 -282 -69
-82 0 -111 8 -83 24 8 5 92 66 185 137 150 113 170 132 173 160 2 23 -3 35
-20 47 -12 9 -28 16 -34 16 -7 0 -97 -63 -201 -140 -207 -154 -216 -156 -169
-40 37 89 110 204 170 264 92 92 239 154 391 165 98 7 247 2 259 -9z m-1504
-500 c222 -62 382 -233 455 -489 6 -18 4 -22 -6 -15 -8 4 -79 50 -158 102 -79
51 -155 94 -169 95 -35 3 -68 -43 -53 -72 7 -12 79 -66 161 -121 83 -55 150
-103 150 -107 0 -3 -53 -3 -117 0 -241 11 -414 104 -532 286 -59 92 -137 308
-118 327 28 29 275 25 387 -6z"/>
<path d="M40606 13278 c-4 -57 -16 -199 -27 -317 -26 -291 -30 -263 37 -259
l57 3 41 110 c53 140 100 228 142 265 59 52 111 60 371 60 l234 0 -3 -997 c-3
-1088 -1 -1036 -62 -1101 -32 -34 -91 -56 -178 -66 -27 -4 -68 -9 -93 -12
l-45 -5 0 -55 0 -54 560 0 560 0 0 55 c0 62 18 53 -150 74 -111 14 -167 43
-200 102 l-25 44 -3 1008 -2 1007 240 0 c279 0 316 -6 371 -61 45 -45 118
-192 151 -302 l23 -79 52 4 c29 3 56 7 59 10 3 4 1 71 -5 150 -6 78 -14 227
-17 331 l-7 187 -47 0 c-37 0 -51 -5 -71 -26 -51 -56 -20 -54 -929 -54 -913 0
-873 -2 -918 55 -16 20 -29 25 -65 25 l-44 0 -7 -102z"/>
<path d="M23002 13340 c-279 -39 -497 -185 -592 -395 -42 -92 -55 -159 -54
-275 2 -128 32 -229 100 -332 88 -132 209 -225 529 -408 260 -148 347 -216
408 -321 45 -78 60 -150 55 -269 -4 -93 -8 -115 -35 -173 -71 -150 -202 -227
-388 -227 -149 0 -270 48 -381 152 -111 104 -179 220 -249 425 -3 8 -19 7 -64
-4 l-59 -15 5 -37 c16 -110 65 -396 80 -462 l16 -77 55 -22 c82 -31 266 -77
361 -91 115 -16 334 -6 432 19 412 109 644 449 564 827 -26 121 -74 207 -173
305 -102 102 -194 164 -439 296 -217 118 -306 178 -380 258 -81 88 -105 147
-111 273 -5 123 17 210 73 286 70 94 171 137 321 137 245 0 402 -129 485 -400
13 -41 26 -79 30 -83 4 -5 32 -3 64 4 49 11 56 15 51 33 -2 12 -17 132 -32
267 l-28 246 -100 22 c-210 43 -416 59 -544 41z"/>
<path d="M28996 13340 c-519 -60 -921 -321 -1111 -723 -128 -271 -151 -625
-59 -945 31 -109 118 -287 183 -372 66 -88 200 -215 286 -271 225 -148 467
-217 790 -226 246 -7 450 19 831 107 l91 21 -10 57 c-6 31 -11 215 -11 407 -1
307 1 355 16 387 20 45 70 73 162 88 l66 12 0 54 0 54 -495 0 -495 0 0 -54 0
-54 63 -7 c265 -28 302 -57 319 -248 12 -133 4 -456 -12 -509 -23 -76 -112
-135 -252 -164 -98 -21 -310 -14 -426 15 -331 83 -568 330 -677 706 -44 152
-58 264 -58 455 0 384 97 650 312 852 179 169 433 246 715 219 365 -36 544
-172 651 -499 24 -75 29 -83 49 -78 11 2 38 8 58 11 32 6 37 10 33 29 -5 22
-39 368 -50 512 l-7 80 -151 28 c-84 15 -201 33 -262 41 -140 18 -446 27 -549
15z"/>
<path d="M38340 13335 c-103 -16 -228 -59 -306 -106 -92 -54 -203 -171 -246
-259 -55 -111 -71 -193 -65 -320 16 -294 156 -456 612 -710 263 -146 380 -241
436 -355 103 -212 37 -482 -144 -588 -92 -54 -234 -72 -359 -46 -209 44 -388
229 -484 502 -21 60 -30 76 -43 73 -9 -3 -35 -10 -58 -16 -24 -6 -43 -16 -43
-23 1 -56 86 -529 101 -558 8 -17 195 -78 324 -106 60 -13 125 -18 260 -18
210 1 289 17 440 90 258 125 398 341 398 615 0 315 -147 493 -613 740 -368
196 -475 301 -503 495 -27 189 59 369 210 437 58 26 223 36 303 19 138 -30
245 -119 315 -265 24 -50 51 -118 61 -151 9 -33 18 -62 19 -63 2 -2 29 1 59 8
47 10 56 15 56 33 -1 39 -58 508 -63 513 -8 9 -258 54 -350 64 -120 13 -213
11 -317 -5z"/>
<path d="M55676 13340 c-570 -72 -982 -465 -1091 -1040 -25 -128 -25 -362 -1
-484 77 -398 306 -710 646 -881 178 -89 321 -124 540 -132 177 -6 300 9 441
53 373 117 654 393 779 764 76 225 96 495 54 729 -89 500 -465 879 -967 976
-99 19 -306 27 -401 15z m191 -140 c268 -35 496 -207 632 -478 48 -95 98 -255
122 -388 31 -169 31 -488 1 -655 -24 -132 -74 -280 -125 -371 -164 -291 -474
-423 -804 -342 -406 99 -681 538 -700 1119 -6 181 6 321 42 460 92 365 329
610 634 654 78 12 115 12 198 1z"/>
<path d="M25602 13108 l3 -203 163 -3 162 -2 0 205 0 205 -165 0 -165 0 2
-202z"/>
<path d="M52400 13105 l0 -205 160 0 160 0 0 205 0 205 -160 0 -160 0 0 -205z"/>
<path d="M14938 13294 c-5 -4 -8 -29 -8 -55 0 -55 -9 -50 120 -69 144 -21 192
-65 210 -192 13 -83 12 -1744 0 -1827 -18 -126 -61 -153 -293 -187 l-38 -5 3
-52 3 -52 565 1 c476 0 585 3 690 18 388 53 657 172 871 385 229 228 349 536
349 896 0 337 -102 598 -317 808 -179 175 -418 274 -773 318 -109 13 -1370 26
-1382 13z m1227 -145 c138 -17 231 -44 340 -99 219 -110 360 -274 435 -507 47
-145 61 -248 62 -433 0 -307 -57 -530 -187 -725 -168 -253 -438 -385 -786
-385 -225 0 -313 39 -371 165 l-23 50 0 910 c0 996 -2 960 59 992 76 41 284
55 471 32z"/>
<path d="M18920 13245 c0 -63 -6 -59 102 -73 153 -19 191 -63 209 -234 15
-154 7 -1770 -9 -1820 -33 -98 -86 -124 -314 -153 l-48 -6 0 -55 0 -54 925 0
924 0 21 71 c24 78 140 520 140 530 0 7 -79 29 -104 29 -10 0 -34 -36 -62 -92
-66 -131 -127 -222 -193 -289 -89 -88 -112 -93 -461 -94 -306 0 -333 4 -390
52 -56 47 -60 80 -60 556 l0 429 273 -5 c166 -3 286 -9 309 -16 80 -25 120
-86 149 -229 l13 -62 58 0 58 0 0 390 0 390 -59 0 -59 0 -7 -47 c-13 -91 -45
-172 -79 -207 -51 -50 -91 -56 -390 -56 l-266 0 0 453 c0 433 1 455 19 471 17
16 47 17 333 14 292 -3 316 -4 358 -24 25 -11 60 -37 77 -58 40 -45 116 -199
140 -284 l18 -64 54 6 c30 4 57 9 59 11 2 2 -3 125 -12 272 -9 147 -16 276
-16 286 0 16 -47 17 -855 17 l-855 0 0 -55z"/>
<path d="M31582 13243 l3 -57 80 -12 c144 -20 227 -75 289 -189 21 -40 21 -45
24 -795 3 -769 -3 -976 -33 -1060 -29 -83 -93 -130 -206 -150 -35 -7 -74 -14
-86 -16 -21 -4 -23 -10 -23 -59 l0 -55 455 0 455 0 0 55 c0 61 4 58 -94 69
-139 16 -235 78 -261 169 -23 83 -35 434 -35 1051 0 487 2 567 14 557 8 -7
369 -444 802 -971 l788 -960 78 0 78 0 1 953 c0 1064 5 1220 37 1284 35 67 88
95 222 117 l75 12 3 57 3 57 -463 -2 -463 -3 -3 -52 c-3 -52 -3 -52 30 -57
211 -30 259 -44 311 -94 15 -14 34 -49 42 -76 24 -79 36 -489 33 -1061 l-3
-510 -784 928 -784 927 -294 0 -294 0 3 -57z"/>
<path d="M44160 13245 c0 -63 -7 -58 107 -73 163 -22 198 -62 213 -245 6 -62
10 -372 10 -689 0 -711 8 -784 110 -993 107 -223 299 -361 582 -422 124 -26
409 -24 538 4 370 80 579 316 657 738 11 61 16 231 23 720 8 633 11 701 36
760 27 64 112 117 209 130 99 12 95 9 95 70 l0 55 -450 0 -450 0 0 -54 c0 -60
6 -66 68 -66 57 0 162 -28 208 -55 23 -14 51 -39 62 -57 43 -69 47 -138 47
-773 0 -537 -2 -610 -18 -690 -54 -270 -153 -428 -320 -510 -94 -45 -169 -64
-292 -71 -345 -21 -595 141 -694 451 -50 155 -52 197 -49 900 3 608 4 653 22
693 10 23 31 51 46 62 33 23 129 50 181 50 63 0 69 6 69 66 l0 54 -505 0 -505
0 0 -55z"/>
<path d="M48082 13244 l3 -59 70 -8 c163 -17 223 -57 244 -159 8 -38 11 -332
9 -983 -3 -917 -3 -930 -24 -965 -28 -48 -86 -78 -180 -91 -135 -19 -124 -12
-124 -75 l0 -56 578 5 c584 5 642 9 842 48 477 95 822 369 974 771 60 160 92
376 83 553 -16 298 -117 536 -306 726 -186 185 -416 283 -781 330 -50 6 -357
13 -738 16 l-653 5 3 -58z m1328 -109 c306 -66 537 -251 648 -517 126 -303
122 -752 -9 -1070 -86 -209 -227 -360 -425 -454 -148 -71 -237 -88 -449 -89
l-180 0 -69 34 c-53 26 -74 43 -96 78 -56 87 -55 74 -55 1028 0 800 2 883 17
917 21 46 50 65 129 83 84 19 382 13 489 -10z"/>
<path d="M25600 11895 c0 -487 -4 -741 -11 -775 -13 -61 -56 -110 -115 -128
-21 -6 -79 -17 -127 -24 l-88 -12 3 -50 3 -51 505 0 505 0 0 50 0 49 -108 18
c-118 19 -174 44 -200 87 -33 56 -37 149 -37 859 l0 702 -165 0 -165 0 0 -725z"/>
<path d="M52398 11878 c-3 -699 -4 -746 -22 -786 -34 -78 -78 -102 -233 -123
l-83 -12 0 -54 0 -53 505 0 505 0 0 53 0 53 -87 12 c-209 28 -238 56 -253 245
-6 62 -10 403 -10 760 l0 647 -159 0 -160 0 -3 -742z"/>
<path d="M30868 9953 c7 -3 16 -2 19 1 4 3 -2 6 -13 5 -11 0 -14 -3 -6 -6z"/>
<path d="M45781 9924 c0 -11 3 -14 6 -6 3 7 2 16 -1 19 -3 4 -6 -2 -5 -13z"/>
<path d="M30880 9900 c-9 -6 -10 -10 -3 -10 6 0 15 5 18 10 8 12 4 12 -15 0z"/>
<path d="M50116 9891 c-4 -5 -2 -12 3 -15 5 -4 12 -2 15 3 4 5 2 12 -3 15 -5
4 -12 2 -15 -3z"/>
<path d="M38165 9626 c-92 -43 -141 -129 -133 -236 5 -71 39 -127 106 -174 59
-42 159 -49 227 -16 54 26 108 86 123 139 61 201 -135 375 -323 287z"/>
<path d="M14930 9460 l0 -70 2090 0 2090 0 0 70 0 70 -2090 0 -2090 0 0 -70z"/>
<path d="M52890 9460 l0 -70 2090 0 2090 0 0 70 0 70 -2090 0 -2090 0 0 -70z"/>
<path d="M34817 9379 c7 -7 15 -10 18 -7 3 3 -2 9 -12 12 -14 6 -15 5 -6 -5z"/>
<path d="M48032 9156 c7 -8 15 -12 17 -11 5 6 -10 25 -20 25 -5 0 -4 -6 3 -14z"/>
<path d="M48708 9153 c7 -3 16 -2 19 1 4 3 -2 6 -13 5 -11 0 -14 -3 -6 -6z"/>
<path d="M35263 9095 c0 -8 4 -12 9 -9 5 3 6 10 3 15 -9 13 -12 11 -12 -6z"/>
<path d="M47050 9068 c-12 -22 -12 -22 6 -6 10 10 15 20 12 24 -4 3 -12 -5
-18 -18z"/>
<path d="M23664 9058 c-4 -7 -4 -10 1 -6 4 4 15 2 24 -5 14 -11 14 -10 2 6
-16 20 -18 21 -27 5z"/>
<path d="M41650 9030 c0 -5 5 -10 11 -10 5 0 7 5 4 10 -3 6 -8 10 -11 10 -2 0
-4 -4 -4 -10z"/>
</g>
</svg>
